<svg id="Capa_1" enable-background="new 0 0 512 512" height="512" viewBox="0 0 512 512" width="512" xmlns="http://www.w3.org/2000/svg"><g><g><path d="m89.661 0c-16.569 0-30 13.431-30 30v354.531l196.339 10 30-299.176-30-95.355z" fill="#07485e"/><path d="m452.339 30c0-16.569-13.431-30-30-30h-166.339v394.531l196.339-10z" fill="#04303e"/></g><g><path d="m59.661 384.531v97.469c0 16.569 13.431 30 30 30h71.268l95.071-10 10-85.943-10-31.526z" fill="#dce6eb"/><path d="m256 384.531v117.469l95.071 10h71.268c16.569 0 30-13.431 30-30v-97.469z" fill="#b9c3cd"/></g><g><path d="m192.797 448.266c-17.6 0-31.867 14.267-31.867 31.867v31.867h95.07l10-30-10-33.734z" fill="#b9c3cd"/><path d="m351.071 480.133c0-17.6-14.267-31.867-31.867-31.867h-63.204v63.734h95.071z" fill="#909ba6"/></g><g><g><path d="m153.812 285.929-20.258 30h122.446l10-15-10-15z" fill="#00dc80"/><path d="m256 285.929h114.434v30h-114.434z" fill="#00a98f"/></g><g><g><path d="m163.815 239.183-31.401 75.608 1.14 1.138 75.607-31.401 10.68-10.68-12.044-32.044-33.301-13.301z" fill="#ffe0ba"/><path d="m266 175.602-10-28.603-81.504 81.504 45.345 45.345 36.159-36.159z" fill="#ff6c6c"/></g><path d="m370.35 77.993c-12.522-12.522-32.823-12.522-45.345 0l-69.005 69.006v90.69l114.35-114.35c12.522-12.522 12.522-32.824 0-45.346z" fill="#ff415b"/></g></g></g></svg>